OpenSim_Sub01_CSBaseline_RCS.mot
version=1
nRows=34
nColumns=11
inDegrees=no
endheader
time	Top_Thigh	Med_Thigh	Bot_Thigh	Top_Shank	2nd_Top_Shank	2nd_Bot_Shank	Bot_Shank	BNOx	BNOy	BNOZ
44.62000000	635548.41474919	524721.17903803	2502371.65294178	725653.12775491	1001968.09064396	48785.97442605	1324639.93845881	595341.30097389	603880.42906141	432492.28162080
44.63000000	639174.11431777	527735.86705798	2516735.44821032	729859.49980711	1007732.24368474	49049.75770069	1332255.69043714	598810.28307434	607371.70338907	434904.81637103
44.64000000	642813.60081069	530762.10600656	2531154.12139355	734082.11228057	1013518.48236751	49314.50700487	1339900.59628859	602292.70187010	610876.39782312	437326.30626200
44.65000000	646466.90038324	533799.91796825	2545627.77710748	738320.99645690	1019326.84891833	49580.22410172	1347574.71170800	605788.58330723	614394.53808957	439756.76787921
44.66000000	650134.03919072	536849.32502755	2560156.51996811	742576.18361770	1025157.38556329	49846.91075435	1355278.09239021	609297.95333182	617926.14991444	442196.21780817
44.67000000	653815.04338841	539910.34926897	2574740.45459144	746847.70504455	1031010.13452844	50114.56872587	1363010.79403006	612820.83788991	621471.25902374	444644.67263438
44.68000000	657509.93913159	542983.01277699	2589379.68559347	751135.59201904	1036885.13803986	50383.19977942	1370772.87232237	616357.26292758	625029.89114350	447102.14894335
44.69000000	661218.75257555	546067.33763613	2604074.31759023	755439.87582279	1042782.43832361	50652.80567810	1378564.38296201	619907.25439090	628602.07199974	449568.66332057
44.70000000	664941.50987558	549163.34593087	2618824.45519770	759760.58773737	1048702.07760577	50923.38818503	1386385.38164379	623470.83822594	632187.82731846	452044.23235154
44.71000000	668678.23718697	552271.05974571	2633630.20303190	764097.75904438	1054644.09811241	51194.94906334	1394235.92406255	627048.04037877	635787.18282570	454528.87262177
44.72000000	672428.96066499	555390.50116516	2648491.66570883	768451.42102541	1060608.54206959	51467.49007615	1402116.06591313	630638.88679544	639400.16424747	457022.60071677
44.73000000	676193.70646495	558521.69227370	2663408.94784451	772821.60496207	1066595.45170340	51741.01298656	1410025.86289038	634243.40342204	643026.79730979	459525.43322203
44.74000000	679972.50074211	561664.65515584	2678382.15405493	777208.34213594	1072604.86923988	52015.51955771	1417965.37068912	637861.61620463	646667.10773868	462037.38672306
44.75000000	683765.36965178	564819.41189608	2693411.38895609	781611.66382862	1078636.83690512	52291.01155270	1425934.64500420	641493.55108927	650321.12126015	464558.47780537
44.76000000	687572.33934923	567985.98457892	2708496.75716401	786031.60132171	1084691.39692518	52567.49073466	1433933.74153044	645139.23402204	653988.86360022	467088.72305444
44.77000000	691393.43598977	571164.39528884	2723638.36329471	790468.18589679	1090768.59152614	52844.95886671	1441962.71596271	648798.69094900	657670.36048492	469628.13905579
44.78000000	695228.68572866	574354.66611036	2738836.31196416	794921.44883546	1096868.46293406	53123.41771197	1450021.62399581	652471.94781622	661365.63764026	472176.74239492
44.79000000	699078.11472119	577556.81912796	2754090.70778838	799391.42141931	1102991.05337502	53402.86903355	1458110.52132459	656159.03056977	665074.72079226	474734.54965733
44.80000000	702941.74912267	580770.87642615	2769401.65538340	803878.13492995	1109136.40507508	53683.31459457	1466229.46364391	659859.96515572	668797.63566694	477301.57742852
44.81000000	706819.61508836	583996.86008942	2784769.25936519	808381.62064895	1115304.56026032	53964.75615815	1474378.50664857	663574.77752013	672534.40799032	479877.84229400
44.82000000	710711.73877356	587234.79220228	2800193.62434978	812901.90985793	1121495.56115679	54247.19548742	1482557.70603343	667303.49360907	676285.06348841	482463.36083927
44.83000000	714618.14633355	590484.69484921	2815674.85495316	817439.03383846	1127709.44999058	54530.63434548	1490767.11749332	671046.13936862	680049.62788723	485058.14964984
44.84000000	718538.86392363	593746.59011473	2831213.05579136	821993.02387216	1133946.26898775	54815.07449547	1499006.79672309	674802.74074483	683828.12691281	487662.22531119
44.85000000	722473.91769907	597020.50008332	2846808.33148035	826563.91124060	1140206.06037438	55100.51770049	1507276.79941755	678573.32368378	687620.58629115	490275.60440885
44.86000000	726423.33381516	600306.44683948	2862460.78663616	831151.72722539	1146488.86637652	55386.96572366	1515577.18127157	682357.91413153	691427.03174829	492898.30352830
44.87000000	730387.13842720	603604.45246772	2878170.52587480	835756.50310811	1152794.72922026	55674.42032811	1523907.99797997	686156.53803416	695247.48901024	495530.33925506
44.88000000	734365.35769046	606914.53905253	2893937.65381226	840378.27017037	1159123.69113166	55962.88327696	1532269.30523758	689969.22133773	699081.98380301	498171.72817462
44.89000000	738358.01776023	610236.72867840	2909762.27506455	845017.05969375	1165475.79433678	56252.35633331	1540661.15873925	693795.98998830	702930.54185262	500822.48687249
44.90000000	742365.14479180	613571.04342984	2925644.49424768	849672.90295985	1171851.08106171	56542.84126030	1549083.61417981	697636.86993195	706793.18888510	503482.63193417
44.91000000	746386.76494047	616917.50539135	2941584.41597767	854345.83125027	1178249.59353251	56834.33982104	1557536.72725411	701491.88711475	710669.95062647	506152.17994516
44.92000000	750422.90436150	620276.13664742	2957582.14487049	859035.87584660	1184671.37397525	57126.85377865	1566020.55365697	705361.06748276	714560.85280273	508831.14749097
44.93000000	754473.58921020	623646.95928255	2973637.78554217	863743.06803043	1191116.46461600	57420.38489624	1574535.14908324	709244.43698205	718465.92113991	511519.55115710
44.94000000	758538.84564184	627029.99538123	2989751.44260873	868467.43908336	1197584.90768083	57714.93493694	1583080.56922775	713142.02155869	722385.18136403	514217.40752905
44.95000000	762618.69981171	630425.26702798	3005923.22068614	873209.02028698	1204076.74539581	58010.50566386	1591656.86978534	717053.84715874	726318.65920111	516924.73319232
